
<svg width="109px" height="129px" viewBox="125 270 109 129" version="1.1" xmlns="http://www.w3.org/2000/svg" xmlns:xlink="http://www.w3.org/1999/xlink">
    <!-- Generator: Sketch 42 (36781) - http://www.bohemiancoding.com/sketch -->
    <desc>Created with Sketch.</desc>
    <defs></defs>
    <g id="Group-3" stroke="none" stroke-width="1" fill="none" fill-rule="evenodd" transform="translate(128.000000, 272.000000)" stroke-linecap="round">
        <path d="M64.75,6.75 C64.75,6.75 76.3888547,6.75 84.25,6.75 L84.25,6.75 L84.7557096,6.75 C99.1119598,6.75 110.75,18.3874393 110.75,32.75 L110.75,32.75 C110.75,47.1094035 99.1016757,58.75 84.7445456,58.75 L45.25,58.75" id="Rectangle-3" stroke="#4BC3DA" stroke-width="4" transform="translate(78.000000, 32.750000) rotate(-90.000000) translate(-78.000000, -32.750000) "></path>
        <path d="M12.75,65.75 C12.75,65.75 24.3888547,65.75 32.25,65.75 L32.25,65.75 L32.7557096,65.75 C47.1119598,65.75 58.75,77.3874393 58.75,91.75 L58.75,91.75 C58.75,106.109403 47.1016757,117.75 32.7445456,117.75 L-6.75,117.75" id="Rectangle-3" stroke="#4BC3DA" stroke-width="4" transform="translate(26.000000, 91.750000) rotate(-270.000000) translate(-26.000000, -91.750000) "></path>
        <path d="M45,57.4318126 L45,53.5028563 C45,49.9114279 47.9174538,47 51.5,47 L51.5,47 C55.0898509,47 58,49.9120165 58,53.4984131 L58,58.5015869 C58,62.0905614 55.0922086,65 51.5,65 L51.5,65 L51.5,65" id="Rectangle-4" stroke="#4BC3DA" stroke-width="4.4" stroke-linejoin="bevel"></path>
        <path d="M45,70.4318126 L45,66.5028563 C45,62.9114279 47.9174538,60 51.5,60 L51.5,60 C55.0898509,60 58,62.9120165 58,66.4984131 L58,71.5015869 C58,75.0905614 55.0922086,78 51.5,78 L51.5,78 L51.5,78" id="Rectangle-4" stroke="#4BC3DA" stroke-width="4.4" stroke-linejoin="bevel" transform="translate(51.500000, 69.000000) rotate(-180.000000) translate(-51.500000, -69.000000) "></path>
    </g>
</svg>